# xmcd CD database file
#
# Track frame offsets:
#	150
#	72958
#	139600
#	164152
#	239221
#	282796
#
# Disc length: 4710 seconds
#
# Revision: 0
# Processed by: cddbd v1.5.2PL0 Copyright (c) Steve Scherf et al.
# Submitted via: CDex 2.00
#
DISCID=5d126406
DTITLE=Daryl Runswick Quartet - Playdreaming
DYEAR=1981
DGENRE=Jazz
TTITLE0=All Blues
TTITLE1=Loverman
TTITLE2=Everywhere Calypso
TTITLE3=Body And Soul
TTITLE4=Seven Steps
TTITLE5=Bye Bye Blackbird
EXTD=YEAR: 1981
EXTT0=
EXTT1=
EXTT2=
EXTT3=
EXTT4=
EXTT5=
PLAYORDER=
